<svg width="47" height="45" viewBox="0 0 47 45" fill="none" xmlns="http://www.w3.org/2000/svg">
<g filter="url(#filter0_d_97_3841)">
<rect x="3.54565" y="1.66663" width="39.7261" height="38.5403" rx="5" fill="#D9D9D9" fill-opacity="0.23" shape-rendering="crispEdges"/>
</g>
<path d="M30.8203 14.711V29.3859C30.8203 29.7398 30.6797 30.0791 30.4295 30.3293C30.1793 30.5795 29.84 30.72 29.4862 30.72H17.0347C16.6809 30.72 16.3416 30.5795 16.0914 30.3293C15.8412 30.0791 15.7006 29.7398 15.7006 29.3859V11.5981C15.7006 11.2443 15.8412 10.905 16.0914 10.6548C16.3416 10.4046 16.6809 10.264 17.0347 10.264H26.3733L30.8203 14.711Z" stroke="#BCB0FF" stroke-width="0.666667" stroke-linecap="round" stroke-linejoin="round"/>
<path d="M26.3734 10.264V13.3769C26.3734 13.7307 26.5139 14.0701 26.7641 14.3202C27.0143 14.5704 27.3536 14.711 27.7074 14.711H30.8203" stroke="#BCB0FF" stroke-width="0.666667" stroke-linecap="round" stroke-linejoin="round"/>
<path d="M18.9617 17.8239H24.0016" stroke="#BCB0FF" stroke-width="0.666667" stroke-linecap="round"/>
<path d="M18.9617 20.9368H27.5592" stroke="#BCB0FF" stroke-width="0.666667" stroke-linecap="round"/>
<path d="M18.9617 24.1979H27.5592" stroke="#BCB0FF" stroke-width="0.666667" stroke-linecap="round"/>
<defs>
<filter id="filter0_d_97_3841" x="0.545654" y="-4.08888e-05" width="45.7261" height="44.5403" filterUnits="userSpaceOnUse" color-interpolation-filters="sRGB">
<feFlood flood-opacity="0" result="BackgroundImageFix"/>
<feColorMatrix in="SourceAlpha" type="matrix" values="0 0 0 0 0 0 0 0 0 0 0 0 0 0 0 0 0 0 127 0" result="hardAlpha"/>
<feOffset dy="1.33333"/>
<feGaussianBlur stdDeviation="1.5"/>
<feComposite in2="hardAlpha" operator="out"/>
<feColorMatrix type="matrix" values="0 0 0 0 0 0 0 0 0 0 0 0 0 0 0 0 0 0 0.13 0"/>
<feBlend mode="normal" in2="BackgroundImageFix" result="effect1_dropShadow_97_3841"/>
<feBlend mode="normal" in="SourceGraphic" in2="effect1_dropShadow_97_3841" result="shape"/>
</filter>
</defs>
</svg>
