<svg width="47" height="45" viewBox="0 0 47 45" fill="none" xmlns="http://www.w3.org/2000/svg">
<g filter="url(#filter0_d_97_3838)">
<rect x="3.54565" y="1.66663" width="39.7261" height="38.5403" rx="5" fill="#D9D9D9" fill-opacity="0.23" shape-rendering="crispEdges"/>
</g>
<path d="M36.1209 18.5192C36.0801 18.3903 36.0044 18.2757 35.9024 18.1884C35.8004 18.1012 35.6762 18.0448 35.5441 18.0259L33.8128 17.7708C33.8014 17.768 33.7898 17.7657 33.7781 17.7639L32.548 17.5826L31.2027 14.8181C31.1423 14.6968 31.0499 14.5948 30.9357 14.5235C30.8215 14.4523 30.6901 14.4145 30.556 14.4146C30.4219 14.4146 30.2905 14.4523 30.1763 14.5236C30.0621 14.5948 29.9697 14.6968 29.9093 14.8182L28.5641 17.5826L27.334 17.7639C27.3224 17.7656 27.3109 17.7679 27.2996 17.7708L25.8734 17.9809L24.415 14.9839C24.345 14.84 24.2367 14.7189 24.1024 14.6342C23.968 14.5495 23.813 14.5046 23.6548 14.5046C23.4966 14.5046 23.3416 14.5495 23.2072 14.6342C23.0729 14.7189 22.9646 14.84 22.8946 14.9839L21.4429 17.9672L20.1103 17.7708C20.0989 17.768 20.0873 17.7657 20.0756 17.7639L18.8454 17.5826L17.5001 14.8182C17.4397 14.6968 17.3473 14.5948 17.2331 14.5236C17.1189 14.4523 16.9875 14.4146 16.8534 14.4146C16.7193 14.4146 16.5879 14.4523 16.4737 14.5236C16.3595 14.5948 16.2671 14.6968 16.2067 14.8182L14.8616 17.5826L13.6315 17.7639C13.6199 17.7656 13.6084 17.7679 13.597 17.7708L11.8655 18.0259C11.7336 18.0454 11.6096 18.1019 11.5077 18.189C11.4057 18.2762 11.3298 18.3905 11.2886 18.5192C11.2474 18.6478 11.2425 18.7855 11.2745 18.9168C11.3065 19.0481 11.374 19.1677 11.4695 19.2621L13.6461 21.4139L13.1322 24.4523C13.1093 24.5856 13.1238 24.7229 13.1739 24.8483C13.224 24.9738 13.3078 25.0825 13.4158 25.1621C13.5238 25.2416 13.6516 25.2889 13.7848 25.2985C13.9179 25.3081 14.0511 25.2796 14.1691 25.2163L16.8535 23.7849L19.1916 25.0316L18.6502 28.2325C18.6235 28.3906 18.6409 28.5532 18.7005 28.7018C18.7601 28.8505 18.8595 28.9792 18.9875 29.0735C19.1155 29.1678 19.2669 29.2239 19.4247 29.2355C19.5825 29.2471 19.7403 29.2136 19.8803 29.1389L23.5986 27.1563C23.6159 27.147 23.6353 27.1422 23.6549 27.1422C23.6745 27.1422 23.6938 27.1471 23.7112 27.1564L27.4294 29.1389C27.5695 29.2136 27.7273 29.247 27.8851 29.2355C28.0428 29.2239 28.1943 29.1678 28.3222 29.0735C28.4502 28.9792 28.5496 28.8504 28.6092 28.7018C28.6688 28.5532 28.6862 28.3907 28.6595 28.2326L28.1264 25.0801L30.5561 23.7849L33.2406 25.2163C33.3586 25.2793 33.4916 25.3074 33.6246 25.2977C33.7576 25.2879 33.8853 25.2406 33.9931 25.1611C34.101 25.0817 34.1848 24.9731 34.235 24.8479C34.2852 24.7226 34.2999 24.5856 34.2773 24.4523L33.7636 21.4139L35.9402 19.2621C36.0361 19.168 36.1039 19.0484 36.1359 18.917C36.1679 18.7856 36.1626 18.6477 36.1209 18.5192ZM19.3603 24.0334L19.3207 24.2678L17.1801 23.1264C17.081 23.0739 16.9712 23.0455 16.8595 23.0436C16.8555 23.0435 16.8515 23.0435 16.8475 23.0436C16.7357 23.0455 16.6259 23.0739 16.5269 23.1264L13.8525 24.5524L14.3633 21.5321C14.3829 21.4163 14.3744 21.2974 14.3386 21.1857C14.3028 21.0739 14.2407 20.9727 14.1578 20.8907L11.9942 18.7517L13.7365 18.4949C13.748 18.4932 13.7595 18.4909 13.7709 18.4881L14.9723 18.311C15.0869 18.2942 15.1958 18.2493 15.2896 18.1802C15.3833 18.1111 15.4591 18.0199 15.5104 17.9145L16.8535 15.1544L18.1966 17.9145C18.2478 18.0199 18.3236 18.1111 18.4173 18.1801C18.5111 18.2492 18.62 18.2941 18.7346 18.311L19.9357 18.488C19.9472 18.4909 19.9588 18.4932 19.9705 18.4949L21.1047 18.662L21.0355 18.8044C21.0268 18.8222 21.0139 18.8377 20.9981 18.8494C20.9822 18.8611 20.9638 18.8687 20.9443 18.8716L16.7872 19.4843C16.6306 19.5073 16.4836 19.5744 16.3626 19.6778C16.2417 19.7812 16.1517 19.9168 16.1028 20.0694C16.0539 20.222 16.0481 20.3854 16.086 20.5412C16.1239 20.697 16.204 20.8389 16.3173 20.9509L19.3256 23.9247C19.3396 23.9386 19.3501 23.9558 19.3561 23.9747C19.3622 23.9937 19.3637 24.0138 19.3603 24.0334ZM27.895 28.4772C27.877 28.4913 27.8553 28.4996 27.8327 28.5013C27.81 28.5029 27.7874 28.4978 27.7675 28.4866L24.0493 26.5041C23.9277 26.4392 23.7923 26.4052 23.6548 26.4052C23.5174 26.4052 23.3819 26.4391 23.2603 26.504L19.5421 28.4866C19.5221 28.4973 19.4996 28.5021 19.477 28.5004C19.4545 28.4988 19.4328 28.4907 19.4146 28.4773C19.3963 28.4638 19.3821 28.4454 19.3735 28.4242C19.365 28.4029 19.3625 28.3797 19.3663 28.3571L20.0765 24.158C20.0997 24.0206 20.0897 23.8795 20.0472 23.7469C20.0048 23.6143 19.9311 23.4942 19.8327 23.3969L16.8246 20.4231C16.8084 20.4071 16.7969 20.3868 16.7915 20.3646C16.7861 20.3423 16.7869 20.319 16.7939 20.2972C16.8009 20.2754 16.8137 20.256 16.831 20.2412C16.8483 20.2264 16.8693 20.2168 16.8916 20.2135L21.0488 19.6009C21.1849 19.5809 21.314 19.5276 21.4252 19.4456C21.5364 19.3637 21.6263 19.2556 21.6871 19.1306L23.5463 15.3101C23.5563 15.2895 23.5717 15.2722 23.5909 15.2601C23.6101 15.248 23.6322 15.2416 23.6548 15.2416C23.6774 15.2416 23.6996 15.248 23.7188 15.2601C23.738 15.2722 23.7534 15.2895 23.7634 15.3101L25.6225 19.1305C25.6833 19.2555 25.7732 19.3637 25.8844 19.4456C25.9956 19.5276 26.1248 19.5809 26.2609 19.6009L30.4179 20.2136C30.4403 20.2169 30.4613 20.2265 30.4786 20.2412C30.4958 20.256 30.5087 20.2754 30.5157 20.2972C30.5227 20.319 30.5235 20.3423 30.5181 20.3646C30.5127 20.3868 30.5012 20.4071 30.485 20.4231L27.4769 23.3969C27.3785 23.4942 27.3049 23.6143 27.2624 23.7469C27.22 23.8795 27.2099 24.0206 27.2332 24.158L27.366 24.9434L27.3665 24.9463L27.9432 28.3571C27.9477 28.3797 27.9454 28.4031 27.9369 28.4245C27.9283 28.4458 27.9138 28.4642 27.895 28.4772ZM33.2518 20.8907C33.1688 20.9727 33.1067 21.0739 33.0709 21.1857C33.0351 21.2975 33.0267 21.4164 33.0463 21.5322L33.557 24.5525L30.8827 23.1265C30.7836 23.0739 30.6738 23.0455 30.562 23.0437C30.558 23.0436 30.554 23.0436 30.55 23.0437C30.4383 23.0456 30.3285 23.0739 30.2295 23.1265L27.9972 24.3165L27.9493 24.0335C27.946 24.0138 27.9474 23.9937 27.9535 23.9747C27.9596 23.9558 27.9701 23.9386 27.9842 23.9247L30.9923 20.9509C31.1056 20.8389 31.1857 20.697 31.2236 20.5412C31.2615 20.3854 31.2557 20.222 31.2068 20.0694C31.1579 19.9168 31.0679 19.7812 30.947 19.6778C30.826 19.5744 30.6789 19.5073 30.5224 19.4843L26.3654 18.8716C26.3459 18.8688 26.3275 18.8612 26.3116 18.8495C26.2957 18.8378 26.2829 18.8223 26.2742 18.8044L26.2116 18.6758L27.439 18.495C27.4506 18.4933 27.4621 18.491 27.4734 18.4881L28.6748 18.3111C28.7895 18.2942 28.8984 18.2493 28.9921 18.1802C29.0859 18.1112 29.1616 18.02 29.2129 17.9146L30.5561 15.1544L31.8991 17.9145C31.9504 18.0199 32.0261 18.1111 32.1199 18.1802C32.2136 18.2493 32.3225 18.2942 32.4372 18.311L33.6383 18.4881C33.6498 18.4909 33.6613 18.4932 33.6731 18.4949L35.4153 18.7518L33.2518 20.8907Z" fill="#BCB0FF"/>
<defs>
<filter id="filter0_d_97_3838" x="0.545654" y="-4.08888e-05" width="45.7261" height="44.5403" filterUnits="userSpaceOnUse" color-interpolation-filters="sRGB">
<feFlood flood-opacity="0" result="BackgroundImageFix"/>
<feColorMatrix in="SourceAlpha" type="matrix" values="0 0 0 0 0 0 0 0 0 0 0 0 0 0 0 0 0 0 127 0" result="hardAlpha"/>
<feOffset dy="1.33333"/>
<feGaussianBlur stdDeviation="1.5"/>
<feComposite in2="hardAlpha" operator="out"/>
<feColorMatrix type="matrix" values="0 0 0 0 0 0 0 0 0 0 0 0 0 0 0 0 0 0 0.13 0"/>
<feBlend mode="normal" in2="BackgroundImageFix" result="effect1_dropShadow_97_3838"/>
<feBlend mode="normal" in="SourceGraphic" in2="effect1_dropShadow_97_3838" result="shape"/>
</filter>
</defs>
</svg>
