<svg width="47" height="45" viewBox="0 0 47 45" fill="none" xmlns="http://www.w3.org/2000/svg">
<g filter="url(#filter0_d_97_3835)">
<rect x="3.87903" y="1.66663" width="39.7261" height="38.5403" rx="5" fill="#D9D9D9" fill-opacity="0.23" shape-rendering="crispEdges"/>
</g>
<path d="M32.6263 19.1072C32.6982 18.6219 32.3594 18.1707 31.8697 18.0995L26.8078 17.3663L24.5458 12.7987C24.4644 12.6593 24.3475 12.5436 24.2068 12.4631C23.7625 12.2086 23.1941 12.3592 22.9373 12.7995L20.6762 17.3663L15.6143 18.0996C15.4207 18.1277 15.2419 18.2178 15.1048 18.3561C14.758 18.7061 14.7633 19.2684 15.1166 19.612L18.7824 23.1733L17.9173 28.2003C17.9091 28.2484 17.9049 28.2971 17.9048 28.346C17.9035 28.8371 18.3042 29.2364 18.7999 29.2378C18.9461 29.2376 19.0899 29.2019 19.2189 29.1338L23.742 26.7642L28.2642 29.1329C28.439 29.2248 28.6395 29.2568 28.8346 29.2239C29.322 29.1415 29.6497 28.6833 29.5666 28.2003L28.7015 23.1733L32.3683 19.6111C32.5074 19.4754 32.598 19.2985 32.6263 19.1072ZM27.9073 22.7018C27.8025 22.8037 27.7545 22.95 27.7787 23.0935L28.6832 28.3485L23.951 25.8696C23.82 25.802 23.664 25.802 23.5329 25.8696L18.8008 28.3493L19.7052 23.0936C19.7295 22.9501 19.6815 22.8038 19.5766 22.7018L15.7437 18.9784L21.0391 18.2114C21.1853 18.1897 21.3115 18.0984 21.3768 17.967L23.742 13.1905L26.1071 17.9669C26.1724 18.0983 26.2986 18.1896 26.4448 18.2113L31.7411 18.9775L27.9073 22.7018Z" fill="#BCB0FF"/>
<defs>
<filter id="filter0_d_97_3835" x="0.879028" y="-4.08888e-05" width="45.7261" height="44.5403" filterUnits="userSpaceOnUse" color-interpolation-filters="sRGB">
<feFlood flood-opacity="0" result="BackgroundImageFix"/>
<feColorMatrix in="SourceAlpha" type="matrix" values="0 0 0 0 0 0 0 0 0 0 0 0 0 0 0 0 0 0 127 0" result="hardAlpha"/>
<feOffset dy="1.33333"/>
<feGaussianBlur stdDeviation="1.5"/>
<feComposite in2="hardAlpha" operator="out"/>
<feColorMatrix type="matrix" values="0 0 0 0 0 0 0 0 0 0 0 0 0 0 0 0 0 0 0.13 0"/>
<feBlend mode="normal" in2="BackgroundImageFix" result="effect1_dropShadow_97_3835"/>
<feBlend mode="normal" in="SourceGraphic" in2="effect1_dropShadow_97_3835" result="shape"/>
</filter>
</defs>
</svg>
