<?xml version="1.0" standalone="no"?>
<!DOCTYPE svg PUBLIC "-//W3C//DTD SVG 20010904//EN"
 "http://www.w3.org/TR/2001/REC-SVG-20010904/DTD/svg10.dtd">
<svg version="1.0" xmlns="http://www.w3.org/2000/svg"
 width="172.000000pt" height="172.000000pt" viewBox="0 0 172.000000 172.000000"
 preserveAspectRatio="xMidYMid meet">
<metadata>
Created by potrace 1.14, written by Peter Selinger 2001-2017
</metadata>
<g transform="translate(0.000000,172.000000) scale(0.100000,-0.100000)"
fill="#000000" stroke="none">
<path d="M782 1569 c-198 -39 -353 -220 -366 -427 -6 -114 18 -190 124 -382
23 -41 62 -113 88 -160 25 -47 58 -107 73 -135 16 -27 35 -63 43 -80 54 -106
125 -230 134 -233 6 -2 36 46 68 105 31 59 64 119 73 133 8 14 16 27 16 30 1
5 7 16 45 85 9 17 35 64 57 105 22 41 70 129 106 195 76 141 97 199 102 278
18 306 -260 546 -563 486z"/>
</g>
</svg>
